# xmcd
#
# Track frame offsets:
#	150
#	20729
#	37630
#	66951
#	88580
#	104355
#	123784
#	136369
#	155798
#	176812
#	198190
#	218894
#	239298
#	264126
#	290755
#
# Disc length: 4122 seconds
#
# Revision: 1
# Processed by: cddbd v1.5.2PL0 Copyright (c) Steve Scherf et al.
# Submitted via: EZCDAudioConverter 9.0.6.1
#
DISCID=d410180f
DTITLE=Adrian Bagher and Friends - Saturday Night Blues Party Vol. 3
DYEAR=1900
DGENRE=Blues
TTITLE0=Adrian Bagher - Around The Corner
TTITLE1=Adrian Bagher - Don't Blame It On Jody
TTITLE2=Adrian Bagher - If You Want To Leave
TTITLE3=Adrian Bagher - Cab On The Outside
TTITLE4=Calvin Richardson - Treat Her Right
TTITLE5=DieDra - Rent Man
TTITLE6=21 Savage - Red Opps
TTITLE7=DieDra - Rent Man
TTITLE8=Stan Butler - I Let A Woman Take My Woman
TTITLE9=Jeff Floyd - Jealous Lady
TTITLE10=Klass Band Brotherhood - Baby's Love
TTITLE11=Mckinley Mitchell - Same Old Dream
TTITLE12=Stan Butler - Preacher Was A Home Wrecker
TTITLE13=Shirley Brown - It Dont Hurt Like It Used To
TTITLE14=Shirley Brown - Watch What You Tell Your Friends
EXTD=
EXTT0=
EXTT1=
EXTT2=
EXTT3=
EXTT4=
EXTT5=
EXTT6=
EXTT7=
EXTT8=
EXTT9=
EXTT10=
EXTT11=
EXTT12=
EXTT13=
EXTT14=
PLAYORDER=
